# xmcd
#
# Track frame offsets:
#	150
#	11495
#	29380
#	40662
#	60653
#	75436
#	93109
#	116211
#	134752
#	154206
#	173419
#	187414
#	205609
#	225026
#	242706
#	257495
#	275454
#	292809
#	317880
#
# Disc length: 4430
#
# Revision: 1
# Processed by: cddbd v1.5.1PL0 Copyright (c) Steve Scherf et al.
# Submitted via: ExactAudioCopy v0.95a5
# Normalized: r0:TDELIM( - )
#
DISCID=f6114c13
DTITLE=Various Artist - Greetings from Area Code 207 Volume 4
DYEAR=2003
DGENRE=Country
TTITLE0=Bullyclub - Hello
TTITLE1=Sara Cox - The Milk Song
TTITLE2=Nick Curran and The Nitelifes - Don't Be Angry
TTITLE3=Seekonk - Maps of Egypt
TTITLE4=Diesel Doug and The Long Haul Truckers - Picture of You
TTITLE5=RayCharles Lamontagne - Still Can't Feel the Gin
TTITLE6=Darien Brahms - Wicked
TTITLE7=The Frotus Caper - Cool is a Cure
TTITLE8=Kevin Midgley - Romance
TTITLE9=As Fast As - Stay With Me
TTITLE10=Kate Schrock - If Loving You
TTITLE11=The Ponys - Nightmare Leaves
TTITLE12=Say Zuzu - Good Girl
TTITLE13=Slaid Cleaves - Drinking Days
TTITLE14=Spouse - Feather Boa
TTITLE15=Rod Picott - Stray Dogs
TTITLE16=Cattle Call - All I've Got
TTITLE17=X-Ray Actress - I Want it All
TTITLE18=Garrett Soucy - Plaster on the Wall
EXTD=
EXTT0=
EXTT1=
EXTT2=
EXTT3=
EXTT4=
EXTT5=
EXTT6=
EXTT7=
EXTT8=
EXTT9=
EXTT10=
EXTT11=
EXTT12=
EXTT13=
EXTT14=
EXTT15=
EXTT16=
EXTT17=
EXTT18=
PLAYORDER=
